#!OML:ASF H:\Terrain\Patient Classification 1\Animal2\Wednesday\Animal2.ASF
:FULLY-SPECIFIED
:DEGREES
2285
root 23.7435 17.3258 -3.44038 59.605 -28.2242 -11.6903
lowerback 33.2487 2.14821 -3.08833
upperback 2.20997 1.2838 -1.12408
thorax -14.7471 0.660086 -0.0830097
lowerneck 7.93374 13.2887 13.8311
upperneck -36.1925 13.2992 -32.6322
head -8.43821 9.0719 -16.0193
rclavicle -7.95139e-015 1.59028e-014
rhumerus -63.267 -23.6345 -26.9389
rradius 12.0718
rwrist 27.0414
rhand -41.0719 10.6295
rfingers 7.12502
rthumb -14.0009 -18.879
lclavicle -7.95139e-015 1.59028e-014
lhumerus -54.2451 2.76672 52.7574
lradius 26.8339
lwrist 32.1483
lhand -39.8483 34.569
lfingers 7.12502
lthumb -12.8216 64.1552
rfemur -73.3521 14.434 -9.5561
rtibia 28.1167
rfoot -12.7783 -3.73914
rtoes -6.64393
lfemur -63.8356 1.29903 31.1328
ltibia 11.5117
lfoot -18.7581 32.6086
ltoes -2.51373
2286
root 23.7646 17.3299 -3.43912 59.5493 -28.3885 -11.4094
lowerback 33.3608 2.09941 -2.77224
upperback 2.00755 1.34332 -1.06398
thorax -15.0309 0.671858 -0.219116
lowerneck 8.72768 13.1333 13.9016
upperneck -36.2019 13.1197 -32.817
head -8.62635 9.02817 -16.2633
rclavicle -4.77083e-015 -5.40694e-014
rhumerus -63.5473 -23.0191 -26.906
rradius 12.082
rwrist 26.843
rhand -40.9446 10.4562
rfingers 7.12502
rthumb -13.8782 -19.0607
lclavicle -4.77083e-015 -5.40694e-014
lhumerus -54.7981 2.71249 52.4854
lradius 26.6988
lwrist 31.906
lhand -40.0716 34.9711
lfingers 7.12502
lthumb -13.0368 64.5438
rfemur -73.233 14.0595 -9.4158
rtibia 27.9652
rfoot -12.2474 -4.62606
rtoes -16.1001
lfemur -63.8296 1.02247 31.1479
ltibia 11.0561
lfoot -18.7431 32.576
ltoes -2.25097
2287
root 23.7814 17.3328 -3.43895 59.6766 -28.6366 -11.1737
lowerback 33.1955 2.13776 -2.5798
upperback 2.1536 1.47464 -1.02353
thorax -14.7896 0.7151 -0.327343
lowerneck 8.27127 13.1981 13.7587
upperneck -36.262 13.0812 -33.0551
head -8.54761 9.04339 -16.2896
rclavicle -2.14687e-014 -7.55382e-014
rhumerus -63.6583 -23.4435 -26.4894
rradius 12.0234
rwrist 27.199
rhand -40.8634 10.3499
rfingers 7.12502
rthumb -13.8 -19.1724
lclavicle -2.14687e-014 -7.55382e-014
lhumerus -54.9744 2.15525 52.8221
lradius 27.0801
lwrist 32.7039
lhand -39.7222 35.6647
lfingers 7.12502
lthumb -12.7 65.2585
rfemur -73.4414 13.8633 -9.74386
rtibia 27.8002
rfoot -13.17 -5.25705
rtoes -16.7378
lfemur -63.916 0.582333 31.7009
ltibia 10.7391
lfoot -19.0562 33.0504
ltoes -2.3615
2288
root 23.7994 17.3404 -3.43749 59.6855 -29 -10.8557
lowerback 33.105 2.15751 -2.51114
upperback 2.25953 1.52693 -1.02494
thorax -14.6268 0.731795 -0.383388
lowerneck 7.99354 13.2467 13.6455
upperneck -36.2953 13.0729 -33.1893
head -8.49872 9.06096 -16.2936
rclavicle -8.74653e-015 -4.37326e-015
rhumerus -63.7556 -23.9827 -25.9063
rradius 11.8615
rwrist 27.7894
rhand -41.0437 10.1738
rfingers 7.12502
rthumb -13.9737 -19.3366
lclavicle -8.74653e-015 -4.37326e-015
lhumerus -54.9297 2.39813 52.5904
lradius 26.8016
lwrist 32.4599
lhand -39.2967 35.6733
lfingers 7.12502
lthumb -12.2897 65.2921
rfemur -73.5314 13.646 -10.1395
rtibia 27.6269
rfoot -12.5842 -5.79594
rtoes -19.3269
lfemur -63.9607 0.0281247 32.0911
ltibia 10.4601
lfoot -18.8526 33.8529
ltoes -5.26615
2289
root 23.8187 17.3511 -3.43289 59.4371 -29.4396 -10.3636
lowerback 33.2833 2.21057 -2.47855
upperback 2.27707 1.5904 -1.0665
thorax -14.6801 0.754835 -0.476324
lowerneck 7.83478 13.1818 13.6938
upperneck -36.0936 12.9738 -33.2935
head -8.40459 9.00899 -16.2974
rclavicle 2.06736e-014 4.65156e-014
rhumerus -64.0379 -24.0874 -25.6507
rradius 11.7944
rwrist 27.9496
rhand -41.1016 10.1185
rfingers 7.12502
rthumb -14.0295 -19.388
lclavicle 2.06736e-014 4.65156e-014
lhumerus -55.0179 2.41721 52.3052
lradius 26.5211
lwrist 32.0451
lhand -39.5753 35.7735
lfingers 7.12502
lthumb -12.5583 65.3761
rfemur -73.3485 13.3725 -10.5274
rtibia 27.4534
rfoot -11.9425 -6.32032
rtoes -21.0183
lfemur -64.0064 -0.332393 31.6057
ltibia 10.1935
lfoot -17.9286 34.1481
ltoes -9.05729
2290
root 23.8388 17.361 -3.4267 59.1935 -29.8193 -9.94146
lowerback 33.4954 2.25541 -2.38797
upperback 2.26449 1.67045 -1.06592
thorax -14.7827 0.78288 -0.563299
lowerneck 7.81168 13.0954 13.8141
upperneck -35.9788 12.8408 -33.4766
head -8.36048 8.94718 -16.3916
rclavicle 3.57812e-014 2.56432e-014
rhumerus -64.7962 -24.8929 -24.2236
rradius 11.6441
rwrist 29.5353
rhand -41.3124 10.1159
rfingers 7.12502
rthumb -14.2326 -19.3765
lclavicle 3.57812e-014 2.56432e-014
lhumerus -55.205 2.42874 52.0583
lradius 26.3025
lwrist 31.8844
lhand -39.7267 35.9916
lfingers 7.12502
lthumb -12.7043 65.5851
rfemur -73.1579 13.3009 -11.1168
rtibia 27.3468
rfoot -11.5533 -6.99567
rtoes -22.2172
lfemur -64.0346 -0.549959 30.9695
ltibia 9.97159
lfoot -18.4018 33.548
ltoes -9.34157
2291
root 23.86 17.3674 -3.41921 59.1245 -29.9656 -9.76051
lowerback 33.6597 2.22771 -2.13323
upperback 2.21255 1.75094 -0.895783
thorax -14.913 0.806702 -0.554057
lowerneck 7.89179 13.1029 13.7026
upperneck -35.945 12.7958 -33.6671
head -8.36605 8.96574 -16.4687
rclavicle 2.3059e-014 8.15017e-015
rhumerus -66.3197 -27.1983 -20.2892
rradius 11.2756
rwrist 33.8268
rhand -41.5246 9.92213
rfingers 7.12502
rthumb -14.4371 -19.5557
lclavicle 2.3059e-014 8.15017e-015
lhumerus -55.6564 2.54853 51.882
lradius 26.178
lwrist 32.126
lhand -39.7399 35.8602
lfingers 7.12502
lthumb -12.717 65.453
rfemur -73.0841 13.3321 -11.4994
rtibia 27.3369
rfoot -11.4733 -7.71062
rtoes -24.1287
lfemur -64.0634 -0.644055 30.6614
ltibia 9.77805
lfoot -19.0718 32.8062
ltoes -8.68101
2292
root 23.886 17.3754 -3.4118 59.0348 -30.1422 -9.47878
lowerback 33.807 2.16216 -1.89081
upperback 2.18941 1.77659 -0.753082
thorax -15.0009 0.806511 -0.543698
lowerneck 7.84323 13.1614 13.5359
upperneck -35.8927 12.7989 -33.8886
head -8.32611 9.01537 -16.5184
rclavicle -1.03368e-014 -5.96354e-014
rhumerus -64.282 -24.1913 -25.117
rradius 11.8057
rwrist 28.568
rhand -41.3461 9.49164
rfingers 7.12502
rthumb -14.2652 -19.9984
lclavicle -1.03368e-014 -5.96354e-014
lhumerus -56.1418 2.52854 51.8371
lradius 26.1653
lwrist 32.3241
lhand -40.1019 35.5169
lfingers 7.12502
lthumb -13.066 65.0876
rfemur -73.0203 13.1736 -11.8327
rtibia 27.37
rfoot -11.5195 -7.94373
rtoes -22.9804
lfemur -64.2519 -0.724869 30.2969
ltibia 9.67229
lfoot -18.8351 32.5038
ltoes -9.19307
2293
root 23.917 17.3839 -3.40492 58.8605 -30.6999 -8.90479
lowerback 33.837 2.1579 -1.92055
upperback 2.23994 1.7456 -0.829291
thorax -14.9519 0.792114 -0.597091
lowerneck 7.55379 13.1544 13.595
upperneck -35.7421 12.7336 -34.148
head -8.19076 8.99467 -16.5767
rclavicle 9.54166e-015 2.22639e-014
rhumerus -63.8814 -23.778 -25.8691
rradius 11.7378
rwrist 27.72
rhand -41.3417 9.74786
rfingers 7.12502
rthumb -14.2609 -19.7425
lclavicle 9.54166e-015 2.22639e-014
lhumerus -56.3293 2.16755 52.0121
lradius 26.0904
lwrist 32.581
lhand -40.4557 35.7308
lfingers 7.12502
lthumb -13.407 65.2793
rfemur -73.0099 12.7078 -12.3773
rtibia 27.4256
rfoot -11.4275 -7.76806
rtoes -20.0174
lfemur -64.5519 -0.856285 29.4354
ltibia 9.64413
lfoot -18.2448 32.4932
ltoes -10.0868
2294
root 23.946 17.3891 -3.39462 58.7581 -31.312 -8.40005
lowerback 33.8559 2.23448 -2.01181
upperback 2.26159 1.79681 -0.888129
thorax -14.9347 0.817423 -0.633854
lowerneck 7.23385 13.1024 13.7193
upperneck -35.4673 12.6231 -34.4237
head -8.01073 8.94037 -16.6329
rclavicle -3.97569e-015 -2.18663e-014
rhumerus -63.9765 -24.3745 -25.0251
rradius 11.4097
rwrist 28.6234
rhand -41.2678 9.5701
rfingers 7.12502
rthumb -14.1897 -19.9253
lclavicle -3.97569e-015 -2.18663e-014
lhumerus -56.5195 1.57689 52.3714
lradius 26.1435
lwrist 33.1382
lhand -40.7176 36.5225
lfingers 7.12502
lthumb -13.6594 66.0543
rfemur -73.1279 12.3502 -13.012
rtibia 27.5102
rfoot -11.4333 -8.19501
rtoes -19.5193
lfemur -64.7707 -0.976263 28.5256
ltibia 9.60798
lfoot -18.0923 32.3633
ltoes -9.91605
2295
root 23.9695 17.3966 -3.38374 58.6532 -31.6909 -8.08352
lowerback 33.9402 2.27441 -1.945
upperback 2.18592 1.88279 -0.808817
thorax -15.0605 0.852678 -0.623841
lowerneck 7.48182 13.0144 13.7866
upperneck -35.3368 12.4892 -34.6731
head -8.01752 8.90519 -16.7908
rclavicle 1.35174e-014 -3.18055e-014
rhumerus -63.7669 -24.0421 -25.1913
rradius 11.3274
rwrist 28.4815
rhand -41.1452 9.23417
rfingers 7.12502
rthumb -14.0715 -20.2694
lclavicle 1.35174e-014 -3.18055e-014
lhumerus -56.9555 1.33236 52.3882
lradius 26.1189
lwrist 33.3187
lhand -41.0518 36.8405
lfingers 7.12502
lthumb -13.9815 66.3504
rfemur -73.2576 12.42 -13.7952
rtibia 27.5934
rfoot -11.439 -9.40748
rtoes -19.828
lfemur -64.9118 -1.1223 27.9156
ltibia 9.64512
lfoot -18.4586 31.9406
ltoes -8.42991
2296
root 23.991 17.4053 -3.37513 58.4657 -32.0199 -7.85706
lowerback 34.1343 2.30531 -1.81132
upperback 2.18619 1.97878 -0.71839
thorax -15.1409 0.88654 -0.642696
lowerneck 7.44532 13.0071 13.7226
upperneck -35.2058 12.4526 -34.8016
head -7.96658 8.90567 -16.8116
rclavicle -1.47101e-014 2.88238e-015
rhumerus -63.763 -23.9802 -25.1622
rradius 11.315
rwrist 28.5815
rhand -41.132 9.7276
rfingers 7.12502
rthumb -14.0588 -19.7769
lclavicle -1.47101e-014 2.88238e-015
lhumerus -57.2156 1.42366 52.1212
lradius 25.8385
lwrist 33.1364
lhand -41.255 36.4319
lfingers 7.12502
lthumb -14.1773 65.9281
rfemur -73.2759 12.5767 -14.4238
rtibia 27.6843
rfoot -11.2083 -10.1368
rtoes -18.5209
lfemur -64.9843 -1.23274 27.4355
ltibia 9.74728
lfoot -18.5565 31.62
ltoes -7.64319
2297
root 24.0194 17.4053 -3.36558 58.3226 -32.2392 -7.65144
lowerback 34.3564 2.28196 -1.4923
upperback 2.18711 2.07729 -0.620057
thorax -15.2268 0.909532 -0.754393
lowerneck 7.43136 12.9907 13.6969
upperneck -35.1611 12.389 -34.9883
head -7.9462 8.89787 -16.891
rclavicle 2.18663e-014 8.61732e-014
rhumerus -63.9962 -24.1578 -25.027
rradius 11.4417
rwrist 28.7744
rhand -41.265 10.0767
rfingers 7.12502
rthumb -14.187 -19.4188
lclavicle 2.18663e-014 8.61732e-014
lhumerus -57.4689 1.54849 51.7173
lradius 25.6768
lwrist 32.8429
lhand -41.1425 36.2247
lfingers 7.12502
lthumb -14.0689 65.7285
rfemur -73.1947 12.3214 -14.311
rtibia 27.8396
rfoot -10.807 -10.2528
rtoes -17.7739
lfemur -65.1612 -1.25672 27.1015
ltibia 9.83747
lfoot -17.917 31.7348
ltoes -9.31016
2298
root 24.0581 17.3989 -3.3528 58.2069 -32.2851 -7.30273
lowerback 34.4772 2.06514 -0.937353
upperback 2.19442 2.02385 -0.541038
thorax -15.255 0.853161 -0.945892
lowerneck 7.40491 13.0137 13.7129
upperneck -35.2138 12.3538 -35.2836
head -7.92818 8.91561 -17.0389
rclavicle 3.73715e-014 -4.21423e-014
rhumerus -63.8102 -24.0117 -25.6485
rradius 11.6773
rwrist 28.2444
rhand -41.3143 9.82479
rfingers 7.12502
rthumb -14.2345 -19.6674
lclavicle 3.73715e-014 -4.21423e-014
lhumerus -57.6937 2.15123 50.8629
lradius 25.4371
lwrist 32.1067
lhand -40.9874 36.4064
lfingers 7.12502
lthumb -13.9195 65.9205
rfemur -73.0787 11.7271 -13.9065
rtibia 28.0815
rfoot -10.4102 -10.4298
rtoes -18.7041
lfemur -65.6377 -1.37671 26.8372
ltibia 10.0254
lfoot -17.5724 31.8196
ltoes -10.2024
